<svg xmlns="http://www.w3.org/2000/svg" viewBox="0 0 200 280" preserveAspectRatio="xMidYMid meet"><rect width="200" height="280" fill="#1a140d"/><polygon points="177,133 161,184 103,207 41,185 16,130 46,69 99,53 160,72" fill="none" stroke="#e8ddb5" stroke-width="1.2"/><g transform="translate(55 85)"><path d="M2 6L18 6M2 14L18 14" fill="none" stroke="#e8ddb5" stroke-width="1.2"/></g><g transform="translate(85 85)"><path d="M2 6L18 6M2 14L18 14" fill="none" stroke="#e8ddb5" stroke-width="1.2"/></g><g transform="translate(115 85)"><path d="M2 6L18 6M2 14L18 14" fill="none" stroke="#e8ddb5" stroke-width="1.2"/></g><g transform="translate(55 115)"><path d="M4 4L16 4L10 16Z" fill="none" stroke="#e8ddb5" stroke-width="1.2"/></g><g transform="translate(85 115)"><path d="M4 4L16 4L10 16Z" fill="none" stroke="#e8ddb5" stroke-width="1.2"/></g><g transform="translate(115 115)"><path d="M2 2L18 18M18 2L2 18" fill="none" stroke="#e8ddb5" stroke-width="1.2"/></g><g transform="translate(55 145)"><path d="M10 2V18M2 10H18" fill="none" stroke="#e8ddb5" stroke-width="1.2"/></g><g transform="translate(85 145)"><path d="M10 2V18M2 10H18" fill="none" stroke="#e8ddb5" stroke-width="1.2"/></g><g transform="translate(115 145)"><path d="M2 6L18 6M2 14L18 14" fill="none" stroke="#e8ddb5" stroke-width="1.2"/></g><text x="100" y="255" font-family="serif" font-size="11" fill="#9c8b66" text-anchor="middle">10 /4 stops/ 8000</text><line x1="60" y1="263" x2="140" y2="263" fill="none" stroke="#9c8b66" stroke-width="0.6"/></svg>
